<?xml version="1.0" encoding="UTF-8" standalone="no"?>
<svg
   xmlns:dc="http://purl.org/dc/elements/1.1/"
   xmlns:cc="http://creativecommons.org/ns#"
   xmlns:rdf="http://www.w3.org/1999/02/22-rdf-syntax-ns#"
   xmlns:svg="http://www.w3.org/2000/svg"
   xmlns="http://www.w3.org/2000/svg"
   xmlns:sodipodi="http://sodipodi.sourceforge.net/DTD/sodipodi-0.dtd"
   xmlns:inkscape="http://www.inkscape.org/namespaces/inkscape"
   width="800"
   height="800"
   version="1.1"
   viewBox="0 0 800.00001 800.00001"
   id="svg27636"
   inkscape:version="0.91 r13725"
   sodipodi:docname="tabi-backend-blue.svg">
  <metadata
     id="metadata27659">
    <rdf:RDF>
      <cc:Work
         rdf:about="">
        <dc:format>image/svg+xml</dc:format>
        <dc:type
           rdf:resource="http://purl.org/dc/dcmitype/StillImage" />
        <dc:title />
      </cc:Work>
    </rdf:RDF>
  </metadata>
  <sodipodi:namedview
     pagecolor="#ffffff"
     bordercolor="#666666"
     borderopacity="1"
     objecttolerance="10"
     gridtolerance="10"
     guidetolerance="10"
     inkscape:pageopacity="0"
     inkscape:pageshadow="2"
     inkscape:window-width="2462"
     inkscape:window-height="1564"
     id="namedview27657"
     showgrid="false"
     inkscape:snap-global="true"
     inkscape:snap-object-midpoints="true"
     inkscape:snap-center="true"
     inkscape:zoom="0.417193"
     inkscape:cx="-411.58983"
     inkscape:cy="402.16259"
     inkscape:window-x="98"
     inkscape:window-y="36"
     inkscape:window-maximized="1"
     inkscape:current-layer="svg27636" />
  <defs
     id="defs27638">
    <linearGradient
       id="c"
       x1="344.47"
       x2="-82.755"
       y1="447.12"
       y2="883.37"
       gradientUnits="userSpaceOnUse">
      <stop
         offset="0"
         id="stop27641" />
      <stop
         stop-opacity="0"
         offset="1"
         id="stop27643" />
    </linearGradient>
    <mask
       id="b"
       maskUnits="userSpaceOnUse">
      <circle
         cx="400"
         cy="400"
         r="400"
         color="#000000"
         color-rendering="auto"
         fill="#fff"
         image-rendering="auto"
         shape-rendering="auto"
         solid-color="#000000"
         style="isolation:auto;mix-blend-mode:normal"
         id="circle27646" />
    </mask>
    <mask
       id="a"
       maskUnits="userSpaceOnUse">
      <circle
         cx="400"
         cy="400"
         r="400"
         color="#000000"
         color-rendering="auto"
         fill="#fff"
         image-rendering="auto"
         shape-rendering="auto"
         solid-color="#000000"
         style="isolation:auto;mix-blend-mode:normal"
         id="circle27649" />
    </mask>
    <clipPath
       clipPathUnits="userSpaceOnUse"
       id="clipPath29610">
      <path
         id="path29612"
         style="fill:none;fill-opacity:1;fill-rule:evenodd;stroke:#b1e7fe;stroke-width:8;stroke-linecap:square;stroke-miterlimit:4;stroke-dasharray:none;stroke-dashoffset:0;stroke-opacity:1"
         d="m -128.81355,-62.644066 1176.27125,0 0,1014.406796 -1176.27125,0 z M 401.49274,581.73827 c 0,0 51.15305,-87.0221 51.15305,-124.31806 0,-28.2354 -22.92311,-51.15848 -51.15305,-51.15848 -28.23543,0 -51.15854,22.92308 -51.15854,51.15848 0,37.29596 51.15854,124.31806 51.15854,124.31806 z"
         inkscape:connector-curvature="0"
         sodipodi:nodetypes="ccccccsssc" />
    </clipPath>
  </defs>
  <circle
     cx="400"
     cy="400"
     r="400"
     color="#000000"
     color-rendering="auto"
     fill="#1c8adb"
     image-rendering="auto"
     shape-rendering="auto"
     solid-color="#000000"
     style="isolation:auto;mix-blend-mode:normal;fill:#00b3d5;fill-opacity:1"
     id="circle27651" />
  <path
     d="m209.79 203.74-209.7 209.7c9.8161 329.49 188.56 380.39 389.43 386.49l203.67-203.67v-329.08l-64.271-63.432z"
     color="#000000"
     color-rendering="auto"
     fill="url(#c)"
     image-rendering="auto"
     mask="url(#a)"
     opacity=".42"
     shape-rendering="auto"
     solid-color="#000000"
     style="isolation:auto;mix-blend-mode:normal"
     id="path27653" />
  <g
     inkscape:groupmode="layer"
     id="layer7"
     inkscape:label="bg"
     style="display:inline" />
  <g
     inkscape:groupmode="layer"
     id="layer8"
     inkscape:label="fg"
     style="display:inline">
    <path
       d="m 291.17,438.677 0,18.045 220.64,0 0,-18.033 -220.64,-0.0117 z m 0,40.711 0,18.045 220.64,0 0,-18.035 z m 0,43.141 0,18.045 220.64,0 0,-18.035 z"
       mask="url(#b)"
       style="color:#000000;display:inline;isolation:auto;mix-blend-mode:normal;solid-color:#000000;fill:#ffffff;color-rendering:auto;image-rendering:auto;shape-rendering:auto"
       id="path27655"
       inkscape:connector-curvature="0"
       sodipodi:nodetypes="cccccccccccccccc"
       clip-path="url(#clipPath29610)" />
    <g
       transform="matrix(3.9689055,0,0,3.9689007,-605.33599,253.78525)"
       id="g29491"
       style="clip-rule:evenodd;fill-rule:evenodd;stroke-linejoin:round;stroke-miterlimit:1.5">
      <path
         d="m 253.679,75 c 0,0 9.321,-15.857 9.321,-22.653 0,-5.145 -4.177,-9.322 -9.321,-9.322 -5.145,0 -9.322,4.177 -9.322,9.322 0,6.796 9.322,22.653 9.322,22.653 z m 0,-28 c 2.207,0 4,1.792 4,4 0,2.208 -1.793,4 -4,4 -2.208,0 -4,-1.792 -4,-4 0,-2.208 1.792,-4 4,-4 z"
         style="fill:#ffffff"
         id="path29493"
         inkscape:connector-curvature="0" />
    </g>
    <g
       style="clip-rule:evenodd;fill-rule:evenodd;stroke-linejoin:round;stroke-miterlimit:1.5"
       id="g29590"
       transform="matrix(5.4879359,0,0,5.4879293,-990.68135,164.14357)" />
    <path
       inkscape:connector-curvature="0"
       id="path29604"
       style="color:#000000;display:inline;isolation:auto;mix-blend-mode:normal;solid-color:#000000;fill:#ffffff;color-rendering:auto;image-rendering:auto;shape-rendering:auto"
       mask="url(#b)"
       d="m 209.79,203.74 0,392.52 383.4,0 0,-329.08 -64.271,-63.432 -319.12,0 z m 95.393,27.795 192.61,0.0664 0,118.73 -192.61,0 0,-118.79 z m 125.78,22.477 0,73.842 42.525,0 0,-73.797 -42.525,-0.0449 z m -167.76,159.36 276.56,0.0899 0,150.59 -276.56,0 0,-150.68 z"
       sodipodi:nodetypes="ccccccccccccccccccccccccc" />
  </g>
</svg>
