<?xml version="1.0" encoding="UTF-8" standalone="no"?>
<svg
   xmlns:dc="http://purl.org/dc/elements/1.1/"
   xmlns:cc="http://creativecommons.org/ns#"
   xmlns:rdf="http://www.w3.org/1999/02/22-rdf-syntax-ns#"
   xmlns:svg="http://www.w3.org/2000/svg"
   xmlns="http://www.w3.org/2000/svg"
   xmlns:sodipodi="http://sodipodi.sourceforge.net/DTD/sodipodi-0.dtd"
   xmlns:inkscape="http://www.inkscape.org/namespaces/inkscape"
   width="800"
   height="800"
   version="1.1"
   viewBox="0 0 800.00001 800.00001"
   id="svg4218"
   inkscape:version="0.91 r13725"
   sodipodi:docname="tabi-documentation-blue.svg">
  <metadata
     id="metadata4243">
    <rdf:RDF>
      <cc:Work
         rdf:about="">
        <dc:format>image/svg+xml</dc:format>
        <dc:type
           rdf:resource="http://purl.org/dc/dcmitype/StillImage" />
        <dc:title />
      </cc:Work>
    </rdf:RDF>
  </metadata>
  <sodipodi:namedview
     inkscape:snap-center="true"
     inkscape:snap-object-midpoints="true"
     pagecolor="#ffffff"
     bordercolor="#666666"
     borderopacity="1"
     objecttolerance="10"
     gridtolerance="10"
     guidetolerance="10"
     inkscape:pageopacity="0"
     inkscape:pageshadow="2"
     inkscape:window-width="2462"
     inkscape:window-height="1564"
     id="namedview4241"
     showgrid="false"
     inkscape:zoom="0.834386"
     inkscape:cx="270.74689"
     inkscape:cy="718.16089"
     inkscape:window-x="98"
     inkscape:window-y="36"
     inkscape:window-maximized="1"
     inkscape:current-layer="svg4218"
     inkscape:snap-bbox="true"
     inkscape:object-paths="true"
     inkscape:snap-intersection-paths="true"
     inkscape:object-nodes="true"
     inkscape:snap-smooth-nodes="true"
     inkscape:snap-midpoints="true" />
  <defs
     id="defs4220">
    <linearGradient
       id="c"
       x1="397.14"
       x2="107.14"
       y1="394.29"
       y2="711.43"
       gradientUnits="userSpaceOnUse">
      <stop
         stop-opacity=".42"
         offset="0"
         id="stop4223" />
      <stop
         stop-opacity="0"
         offset="1"
         id="stop4225" />
    </linearGradient>
    <mask
       id="b"
       maskUnits="userSpaceOnUse">
      <circle
         cx="400"
         cy="652.36"
         r="400"
         color="#000000"
         color-rendering="auto"
         fill="#fff"
         image-rendering="auto"
         shape-rendering="auto"
         solid-color="#000000"
         style="isolation:auto;mix-blend-mode:normal"
         id="circle4228" />
    </mask>
    <mask
       id="a"
       maskUnits="userSpaceOnUse">
      <circle
         cx="400"
         cy="400"
         r="400"
         color="#000000"
         color-rendering="auto"
         fill="#fff"
         image-rendering="auto"
         shape-rendering="auto"
         solid-color="#000000"
         style="isolation:auto;mix-blend-mode:normal"
         id="circle4231" />
    </mask>
    <mask
       id="b-3"
       maskUnits="userSpaceOnUse">
      <circle
         cx="400"
         cy="400"
         r="400"
         style="color:#000000;isolation:auto;mix-blend-mode:normal;solid-color:#000000;fill:#ffffff;color-rendering:auto;image-rendering:auto;shape-rendering:auto"
         id="circle27671" />
    </mask>
    <mask
       id="b-9"
       maskUnits="userSpaceOnUse">
      <circle
         cx="400"
         cy="652.35999"
         r="400"
         style="color:#000000;isolation:auto;mix-blend-mode:normal;solid-color:#000000;fill:#ffffff;color-rendering:auto;image-rendering:auto;shape-rendering:auto"
         id="circle4228-0" />
    </mask>
  </defs>
  <circle
     id="circle4235"
     style="color:#000000;isolation:auto;mix-blend-mode:normal;solid-color:#000000;fill:#00b3d5;color-rendering:auto;image-rendering:auto;shape-rendering:auto;fill-opacity:1"
     r="400"
     cy="400"
     cx="400" />
  <path
     inkscape:connector-curvature="0"
     style="fill:url(#c);fill-rule:evenodd"
     id="path4237"
     mask="url(#a)"
     d="M 212.23,222.37 0.69,433.91 C 14.897,583.04 32.898,731.07 337.5,796.43 l 250.25,-250.25 0.0215,-323.81 -193.34,46.949 -182.2,-46.949 z" />
  <path
     sodipodi:nodetypes="ccccccccccccccccccccccccccccccccccc"
     style="fill:#ffffff;fill-rule:evenodd"
     inkscape:connector-curvature="0"
     id="path4239"
     mask="url(#b)"
     d="m 212.23,474.73 0,323.81 181.94,45.251 193.58,-45.251 0.0205,-323.81 -193.33,46.95 -182.2,-46.95 z m 11.153,13.072 165.15,43.652 -0.47995,301.88 -164.67,-41.827 0,-303.71 z m 353.15,0 0.10233,303.52 -177.46,41.793 0.49939,-301.66 176.87,-43.652 z m -41.2008,82.946 -88.103,22.705 0,10.493 88.103,-23.265 z m 0,71.074 -88.103,22.705 0,10.493 88.103,-23.265 z m 0,78.809 -88.103,22.705 0,10.493 88.103,-23.265 z"
     transform="translate(0,-252.36)" />
  <g
     inkscape:groupmode="layer"
     id="layer1"
     inkscape:label="bg"
     style="display:inline" />
  <g
     inkscape:groupmode="layer"
     id="layer2"
     inkscape:label="fg"
     style="display:none">
    <path
       inkscape:connector-curvature="0"
       transform="translate(0,-252.36)"
       style="display:inline;fill:#ffffff;fill-rule:evenodd"
       d="m 212.23,474.73 0,323.81 181.94,45.251 193.58,-45.251 0.0205,-323.81 -193.33,46.95 -182.2,-46.95 z m 11.153,13.072 165.15,43.652 -0.47995,301.88 -164.67,-41.827 0,-303.71 z m 353.15,0 0.10233,303.52 -177.46,41.793 0.49939,-301.66 176.87,-43.652 z m -313.68,82.946 -2.3186,9.9336 88.043,23.265 2.4384,-10.493 z m 271.32,0 -88.163,22.705 2.4384,10.493 88.043,-23.265 z m -271.32,71.074 -2.3186,9.9335 88.043,23.265 2.4384,-10.493 z m 271.32,0 -88.163,22.705 2.4384,10.493 88.043,-23.265 z m -271.32,78.809 -2.3186,9.9335 88.043,23.265 2.4384,-10.493 z m 271.32,0 -88.163,22.705 2.4384,10.493 88.043,-23.265 z"
       mask="url(#b-9)"
       id="path4239-2" />
  </g>
  <path
     inkscape:connector-curvature="0"
     id="path26972-1"
     style="clip-rule:evenodd;display:inline;fill:#ffffff;fill-rule:evenodd;stroke-linejoin:round;stroke-miterlimit:1.5"
     d="m 305.6992,519.15784 c 0,0 60.28817,-94.1873 60.36291,-141.19505 0.0567,-35.62656 -26.8726,-71.7048 -60.18622,-80.51016 -33.42365,-8.83445 -60.63536,13.09665 -60.63536,48.93892 2e-5,47.29209 60.45867,172.76629 60.45867,172.76629 0,0 0,0 0,0 m 0.15467,-194.07322 c 14.30047,3.76148 25.89023,19.248 25.87281,34.56327 -0.0175,15.30909 -11.62702,24.70931 -25.91709,20.98749 -14.31555,-3.72846 -25.94232,-19.21054 -25.93533,-34.55932 0.007,-15.355 11.65361,-24.75964 25.97961,-20.99144 0,0 0,0 0,0" />
</svg>
