<?xml version="1.0" encoding="UTF-8" standalone="no"?>
<svg
   xmlns:dc="http://purl.org/dc/elements/1.1/"
   xmlns:cc="http://creativecommons.org/ns#"
   xmlns:rdf="http://www.w3.org/1999/02/22-rdf-syntax-ns#"
   xmlns:svg="http://www.w3.org/2000/svg"
   xmlns="http://www.w3.org/2000/svg"
   xmlns:sodipodi="http://sodipodi.sourceforge.net/DTD/sodipodi-0.dtd"
   xmlns:inkscape="http://www.inkscape.org/namespaces/inkscape"
   data-name="Ebene 1"
   viewBox="0 0 800 800"
   id="svg6887"
   version="1.1"
   inkscape:version="0.91 r13725"
   sodipodi:docname="tabi-website-blue.svg"
   inkscape:export-filename="/home/ole/Documents/tabi-website-blue.svg.png"
   inkscape:export-xdpi="90"
   inkscape:export-ydpi="90">
  <metadata
     id="metadata6904">
    <rdf:RDF>
      <cc:Work
         rdf:about="">
        <dc:format>image/svg+xml</dc:format>
        <dc:type
           rdf:resource="http://purl.org/dc/dcmitype/StillImage" />
        <dc:title></dc:title>
      </cc:Work>
    </rdf:RDF>
  </metadata>
  <sodipodi:namedview
     pagecolor="#ffffff"
     bordercolor="#666666"
     borderopacity="1"
     objecttolerance="10"
     gridtolerance="10"
     guidetolerance="10"
     inkscape:pageopacity="0"
     inkscape:pageshadow="2"
     inkscape:window-width="2462"
     inkscape:window-height="1564"
     id="namedview6902"
     showgrid="false"
     inkscape:snap-bbox="true"
     inkscape:bbox-paths="true"
     inkscape:snap-bbox-edge-midpoints="true"
     inkscape:snap-bbox-midpoints="true"
     inkscape:bbox-nodes="true"
     inkscape:snap-object-midpoints="true"
     inkscape:snap-center="true"
     inkscape:zoom="0.59"
     inkscape:cx="445.91106"
     inkscape:cy="353.76733"
     inkscape:window-x="98"
     inkscape:window-y="36"
     inkscape:window-maximized="1"
     inkscape:current-layer="svg6887" />
  <defs
     id="defs6889">
    <linearGradient
       id="a"
       x1="387.26"
       x2="152.36"
       y1="376.95"
       y2="611.86"
       gradientUnits="userSpaceOnUse">
      <stop
         offset="0"
         id="stop6892" />
      <stop
         stop-opacity="0"
         offset="1"
         id="stop6894" />
    </linearGradient>
    <mask
       id="b"
       maskUnits="userSpaceOnUse">
      <circle
         cx="400"
         cy="400"
         r="400"
         style="color:#000000;isolation:auto;mix-blend-mode:normal;solid-color:#000000;fill:#ffffff;color-rendering:auto;image-rendering:auto;shape-rendering:auto"
         id="circle27671" />
    </mask>
  </defs>
  <circle
     cx="400"
     cy="400"
     r="400"
     fill="#1c8adb"
     id="circle6896"
     style="fill:#00b3d5;fill-opacity:1" />
  <path
     d="m300.44 793.53l306.93-306.93v-244.76h-414.75l-191.93 191.93c20.276 188.65 126.54 303.09 299.74 359.76z"
     fill="url(#a)"
     opacity=".42"
     id="path6898" />
  <path
     d="m607.38 486.59v-244.76h-414.75v244.76h184.48v53.573h-43.438v18h132.67v-18h-43.438v-53.573zm-395.15-228h375v210.94h-375z"
     fill="#fff"
     id="path6900" />
  <g
     style="clip-rule:evenodd;fill-rule:evenodd;stroke-linejoin:round;stroke-miterlimit:1.5"
     id="g26970"
     transform="matrix(5.1168829,0,0,5.1168767,-898.04314,65.09116)">
    <path
       inkscape:connector-curvature="0"
       id="path26972"
       style="fill:#ffffff"
       d="m 253.679,75 c 0,0 9.321,-15.857 9.321,-22.653 0,-5.145 -4.177,-9.322 -9.321,-9.322 -5.145,0 -9.322,4.177 -9.322,9.322 0,6.796 9.322,22.653 9.322,22.653 z m 0,-28 c 2.207,0 4,1.792 4,4 0,2.208 -1.793,4 -4,4 -2.208,0 -4,-1.792 -4,-4 0,-2.208 1.792,-4 4,-4 z" />
  </g>
</svg>
