<?xml version="1.0" encoding="UTF-8" standalone="no"?>
<svg
   xmlns:dc="http://purl.org/dc/elements/1.1/"
   xmlns:cc="http://creativecommons.org/ns#"
   xmlns:rdf="http://www.w3.org/1999/02/22-rdf-syntax-ns#"
   xmlns:svg="http://www.w3.org/2000/svg"
   xmlns="http://www.w3.org/2000/svg"
   xmlns:sodipodi="http://sodipodi.sourceforge.net/DTD/sodipodi-0.dtd"
   xmlns:inkscape="http://www.inkscape.org/namespaces/inkscape"
   width="800"
   height="800"
   version="1.1"
   viewBox="0 0 800.00001 800.00001"
   id="svg27636"
   inkscape:version="0.91 r13725"
   sodipodi:docname="tabi-project-MASTER.svg"
   inkscape:export-filename="/home/ole/Documents/tabi/tabi-project-blue-website-logo.svg.png"
   inkscape:export-xdpi="78.75"
   inkscape:export-ydpi="78.75">
  <metadata
     id="metadata27659">
    <rdf:RDF>
      <cc:Work
         rdf:about="">
        <dc:format>image/svg+xml</dc:format>
        <dc:type
           rdf:resource="http://purl.org/dc/dcmitype/StillImage" />
        <dc:title />
      </cc:Work>
    </rdf:RDF>
  </metadata>
  <sodipodi:namedview
     pagecolor="#ffffff"
     bordercolor="#666666"
     borderopacity="1"
     objecttolerance="10"
     gridtolerance="10"
     guidetolerance="10"
     inkscape:pageopacity="0"
     inkscape:pageshadow="2"
     inkscape:window-width="2462"
     inkscape:window-height="1564"
     id="namedview27657"
     showgrid="false"
     inkscape:snap-global="true"
     inkscape:snap-object-midpoints="true"
     inkscape:snap-center="true"
     inkscape:zoom="1.70625"
     inkscape:cx="400"
     inkscape:cy="400"
     inkscape:window-x="98"
     inkscape:window-y="36"
     inkscape:window-maximized="1"
     inkscape:current-layer="svg27636"
     showguides="true"
     inkscape:guide-bbox="true"
     inkscape:snap-bbox="true"
     inkscape:bbox-paths="true"
     inkscape:bbox-nodes="true"
     inkscape:snap-bbox-edge-midpoints="true"
     inkscape:snap-bbox-midpoints="true"
     inkscape:object-paths="true"
     inkscape:snap-intersection-paths="true"
     inkscape:snap-smooth-nodes="true"
     inkscape:snap-midpoints="true"
     inkscape:object-nodes="true"
     inkscape:snap-page="true"
     inkscape:snap-grids="true"
     inkscape:snap-to-guides="true" />
  <defs
     id="defs27638">
    <inkscape:path-effect
       effect="skeletal"
       id="path-effect5612"
       is_visible="true"
       pattern="M 40.25423,20.12712 A 20.127119,20.127119 0 0 1 20.12712,40.254243 20.127119,20.127119 0 0 1 0,20.12712 20.127119,20.127119 0 0 1 20.12712,0 20.127119,20.127119 0 0 1 40.25423,20.12712 Z"
       copytype="repeated"
       prop_scale="1"
       scale_y_rel="false"
       spacing="0"
       normal_offset="0"
       tang_offset="0"
       prop_units="false"
       vertical_pattern="false"
       fuse_tolerance="0" />
    <linearGradient
       id="c"
       x1="344.47"
       x2="0.025602655"
       y1="447.12"
       y2="800"
       gradientUnits="userSpaceOnUse">
      <stop
         offset="0"
         id="stop27641" />
      <stop
         stop-opacity="0"
         offset="1"
         id="stop27643" />
    </linearGradient>
    <mask
       id="b"
       maskUnits="userSpaceOnUse">
      <circle
         cx="400"
         cy="400"
         r="400"
         color="#000000"
         color-rendering="auto"
         fill="#fff"
         image-rendering="auto"
         shape-rendering="auto"
         solid-color="#000000"
         style="isolation:auto;mix-blend-mode:normal"
         id="circle27646" />
    </mask>
    <mask
       id="a"
       maskUnits="userSpaceOnUse">
      <circle
         cx="400"
         cy="400"
         r="400"
         color="#000000"
         color-rendering="auto"
         fill="#fff"
         image-rendering="auto"
         shape-rendering="auto"
         solid-color="#000000"
         style="isolation:auto;mix-blend-mode:normal"
         id="circle27649" />
    </mask>
    <clipPath
       clipPathUnits="userSpaceOnUse"
       id="clipPath29610">
      <path
         id="path29612"
         style="fill:none;fill-opacity:1;fill-rule:evenodd;stroke:#b1e7fe;stroke-width:8;stroke-linecap:square;stroke-miterlimit:4;stroke-dasharray:none;stroke-dashoffset:0;stroke-opacity:1"
         d="m -128.81355,-62.644066 1176.27125,0 0,1014.406796 -1176.27125,0 z M 401.49274,581.73827 c 0,0 51.15305,-87.0221 51.15305,-124.31806 0,-28.2354 -22.92311,-51.15848 -51.15305,-51.15848 -28.23543,0 -51.15854,22.92308 -51.15854,51.15848 0,37.29596 51.15854,124.31806 51.15854,124.31806 z"
         inkscape:connector-curvature="0"
         sodipodi:nodetypes="ccccccsssc" />
    </clipPath>
  </defs>
  <circle
     cx="400"
     cy="400"
     r="400"
     style="isolation:auto;mix-blend-mode:normal;fill:#00b3d5;fill-opacity:1"
     id="circle27651"
     shape-rendering="auto"
     image-rendering="auto"
     color-rendering="auto"
     fill="#1c8adb"
     solid-color="#000000"
     color="#000000" />
  <path
     d="M 215.79,179.74 0.02560549,395.4741 C 0,724.9641 173.47735,800 376.63258,800 L 587.87431,588.75828 617.14763,425.6256 550.62404,420.37325 482.03686,488.11831 383.2917,466.12916 536.64342,311.751 369.72395,291.98302 258.19431,255.87606 l 11.35171,-78.47985 -21.54227,-8.83465 z"
     mask="url(#a)"
     style="color:#000000;opacity:0.42000002;isolation:auto;mix-blend-mode:normal;solid-color:#000000;fill:url(#c);color-rendering:auto;image-rendering:auto;shape-rendering:auto"
     id="path27653"
     inkscape:connector-curvature="0"
     sodipodi:nodetypes="cccccccccccccc" />
  <g
     inkscape:groupmode="layer"
     id="layer7"
     inkscape:label="bg"
     style="display:inline" />
  <g
     inkscape:groupmode="layer"
     id="layer8"
     inkscape:label="fg"
     style="display:inline">
    <g
       style="clip-rule:evenodd;fill-rule:evenodd;stroke-linejoin:round;stroke-miterlimit:1.5"
       id="g29590"
       transform="matrix(5.4879359,0,0,5.4879293,-990.68135,164.14357)" />
    <g
       id="g5626"
       transform="translate(-19.794304,13.137429)">
      <path
         style="color:#000000;font-style:normal;font-variant:normal;font-weight:normal;font-stretch:normal;font-size:medium;line-height:normal;font-family:sans-serif;text-indent:0;text-align:start;text-decoration:none;text-decoration-line:none;text-decoration-style:solid;text-decoration-color:#000000;letter-spacing:normal;word-spacing:normal;text-transform:none;direction:ltr;block-progression:tb;writing-mode:lr-tb;baseline-shift:baseline;text-anchor:start;white-space:normal;clip-rule:nonzero;display:inline;overflow:visible;visibility:visible;opacity:1;isolation:auto;mix-blend-mode:normal;color-interpolation:sRGB;color-interpolation-filters:linearRGB;solid-color:#000000;solid-opacity:1;fill:#ffffff;fill-opacity:1;fill-rule:nonzero;stroke:none;stroke-width:2.98000002px;stroke-linecap:butt;stroke-linejoin:miter;stroke-miterlimit:1.5;stroke-dasharray:none;stroke-dashoffset:0;stroke-opacity:1;color-rendering:auto;image-rendering:auto;shape-rendering:auto;text-rendering:auto;enable-background:accumulate"
         d="m 283.92119,242.63049 c 0,0 78.00754,25.44917 117.03104,33.57317 41.87508,8.71679 151.22069,11.83323 151.22069,11.83323 5.90874,0.15537 8.58979,7.45286 4.18698,11.39655 L 311.72562,450.77319 c 52.20139,-11.59558 221.64396,-2.34764 311.36116,83.31141 l -9.01621,13.44434 C 506.56872,444.88968 290.65331,463.16156 290.65331,463.16156 c -6.72205,2.16032 -11.61634,-8.39969 -6.34476,-13.09687 L 535.67313,298.41812 c -22.57543,-0.68008 -97.98487,-3.22944 -137.38385,-11.4308 -40.9135,-8.51747 -118.42666,-35.93279 -118.42666,-35.93279 z"
         id="path14767"
         inkscape:connector-curvature="0"
         sodipodi:nodetypes="ccccccccccccc" />
      <g
         transform="matrix(-4.1117997,0,0,4.1117947,1311.6426,-30.805673)"
         id="g14769"
         style="clip-rule:evenodd;fill-rule:evenodd;stroke-linejoin:round;stroke-miterlimit:1.5">
        <path
           d="m 253.679,75 c 0,0 9.321,-15.857 9.321,-22.653 0,-5.145 -4.177,-9.322 -9.321,-9.322 -5.145,0 -9.322,4.177 -9.322,9.322 0,6.796 9.322,22.653 9.322,22.653 z m 0,-28 c 2.207,0 4,1.792 4,4 0,2.208 -1.793,4 -4,4 -2.208,0 -4,-1.792 -4,-4 0,-2.208 1.792,-4 4,-4 z"
           style="fill:#ffffff"
           id="path14771"
           inkscape:connector-curvature="0" />
      </g>
      <g
         transform="matrix(-5.7584979,0,0,5.7584909,2068.4786,143.73403)"
         id="g14773"
         style="clip-rule:evenodd;fill-rule:evenodd;stroke-linejoin:round;stroke-miterlimit:1.5">
        <path
           d="m 253.679,75 c 0,0 9.321,-15.857 9.321,-22.653 0,-5.145 -4.177,-9.322 -9.321,-9.322 -5.145,0 -9.322,4.177 -9.322,9.322 0,6.796 9.322,22.653 9.322,22.653 z m 0,-28 c 2.207,0 4,1.792 4,4 0,2.208 -1.793,4 -4,4 -2.208,0 -4,-1.792 -4,-4 0,-2.208 1.792,-4 4,-4 z"
           style="fill:#ffffff"
           id="path14775"
           inkscape:connector-curvature="0" />
      </g>
    </g>
  </g>
</svg>
