<?xml version="1.0" encoding="UTF-8" standalone="no"?>
<svg
   xmlns:dc="http://purl.org/dc/elements/1.1/"
   xmlns:cc="http://creativecommons.org/ns#"
   xmlns:rdf="http://www.w3.org/1999/02/22-rdf-syntax-ns#"
   xmlns:svg="http://www.w3.org/2000/svg"
   xmlns="http://www.w3.org/2000/svg"
   xmlns:sodipodi="http://sodipodi.sourceforge.net/DTD/sodipodi-0.dtd"
   xmlns:inkscape="http://www.inkscape.org/namespaces/inkscape"
   data-name="Ebene 1"
   viewBox="0 0 800 800"
   id="svg6887"
   version="1.1"
   inkscape:version="0.91 r13725"
   sodipodi:docname="tabi-website-landing_page-MASTER.svg"
   inkscape:export-filename="/home/ole/Documents/tabi/png/tabi-website-landing_page"
   inkscape:export-xdpi="90"
   inkscape:export-ydpi="90">
  <metadata
     id="metadata6904">
    <rdf:RDF>
      <cc:Work
         rdf:about="">
        <dc:format>image/svg+xml</dc:format>
        <dc:type
           rdf:resource="http://purl.org/dc/dcmitype/StillImage" />
        <dc:title />
      </cc:Work>
    </rdf:RDF>
  </metadata>
  <sodipodi:namedview
     pagecolor="#ffffff"
     bordercolor="#666666"
     borderopacity="1"
     objecttolerance="10"
     gridtolerance="10"
     guidetolerance="10"
     inkscape:pageopacity="0"
     inkscape:pageshadow="2"
     inkscape:window-width="2462"
     inkscape:window-height="1564"
     id="namedview6902"
     showgrid="false"
     inkscape:snap-bbox="true"
     inkscape:bbox-paths="true"
     inkscape:snap-bbox-edge-midpoints="true"
     inkscape:snap-bbox-midpoints="true"
     inkscape:bbox-nodes="true"
     inkscape:snap-object-midpoints="true"
     inkscape:snap-center="true"
     inkscape:zoom="1.70625"
     inkscape:cx="400"
     inkscape:cy="400"
     inkscape:window-x="98"
     inkscape:window-y="36"
     inkscape:window-maximized="1"
     inkscape:current-layer="layer1"
     inkscape:object-paths="true"
     inkscape:snap-intersection-paths="true"
     inkscape:object-nodes="true"
     inkscape:snap-smooth-nodes="true"
     inkscape:snap-midpoints="true"
     inkscape:snap-others="true"
     showguides="true"
     inkscape:guide-bbox="true"
     inkscape:snap-page="true"
     inkscape:snap-to-guides="true" />
  <defs
     id="defs6889">
    <linearGradient
       id="a"
       x1="400.00003"
       x2="0"
       y1="367.05084"
       y2="797.85077"
       gradientUnits="userSpaceOnUse">
      <stop
         offset="0"
         id="stop6892" />
      <stop
         stop-opacity="0"
         offset="1"
         id="stop6894" />
    </linearGradient>
    <mask
       id="b"
       maskUnits="userSpaceOnUse">
      <circle
         cx="400"
         cy="400"
         r="400"
         style="color:#000000;isolation:auto;mix-blend-mode:normal;solid-color:#000000;fill:#ffffff;color-rendering:auto;image-rendering:auto;shape-rendering:auto"
         id="circle27671" />
    </mask>
    <clipPath
       clipPathUnits="userSpaceOnUse"
       id="clipPath6337">
      <circle
         style="fill:#00ff00;fill-opacity:1;fill-rule:evenodd;stroke:none;stroke-width:45;stroke-linecap:round;stroke-linejoin:miter;stroke-miterlimit:4;stroke-dasharray:none;stroke-dashoffset:0;stroke-opacity:1"
         id="circle6339"
         cx="400"
         cy="400"
         r="400" />
    </clipPath>
  </defs>
  <g
     inkscape:groupmode="layer"
     id="layer1"
     inkscape:label="circle"
     style="display:inline">
    <circle
       cx="400"
       cy="400"
       r="400"
       id="circle6896"
       style="fill:#00b3d5;fill-opacity:1" />
  </g>
  <g
     inkscape:groupmode="layer"
     id="layer2"
     inkscape:label="shade"
     style="display:inline">
    <path
       style="opacity:0.42000002;fill:url(#a)"
       d="m 337.04907,797.85079 287.73972,-287.73972 0,-268.27107 -449.56756,0 L 0,417.06123 c 20.276,188.65 -17.66163,292.69336 155.53837,349.36336 z"
       id="path6898"
       clip-path="url(#clipPath6337)"
       inkscape:connector-curvature="0"
       sodipodi:nodetypes="ccccccc" />
    <g
       id="g5521"
       transform="translate(10,0)">
      <path
         style="fill:#ffffff;fill-opacity:1"
         d="m 229.84614,445.44598 187.01266,0 0,14.53201 -187.01266,0 z"
         id="path4959"
         inkscape:connector-curvature="0" />
      <path
         sodipodi:nodetypes="ccsccccccccc"
         style="fill:#ffffff;fill-opacity:1"
         d="m 226.94039,320.74367 2.26738,44.62609 171.70035,53.28375 c 19.54932,6.06657 7.43954,-23.74279 -12.09941,-29.60897 l -43.67896,-17.03645 -18.87104,-80.87122 -23.40597,-2.95546 -0.22663,70.97454 -48.2746,-14.914 -9.06986,-18.13889 -18.34539,-5.35931 z"
         id="path4961"
         inkscape:connector-curvature="0" />
      <path
         style="fill:#ffffff;fill-opacity:1"
         d="m 310.10601,402.88575 c 0,4.04135 -3.27615,7.3175 -7.31751,7.3175 -4.04135,0 -7.3175,-3.27615 -7.3175,-7.3175 0,-4.04136 3.27615,-7.31751 7.3175,-7.31751 4.04136,0 7.31751,3.27615 7.31751,7.31751 z"
         id="path4963"
         inkscape:connector-curvature="0" />
      <path
         style="fill:#ffffff;fill-opacity:1"
         d="m 327.31751,407.3175 c 0,4.04136 -3.27615,7.31751 -7.31751,7.31751 -4.04135,0 -7.3175,-3.27615 -7.3175,-7.31751 0,-4.04135 3.27615,-7.3175 7.3175,-7.3175 4.04136,0 7.31751,3.27615 7.31751,7.3175 z"
         id="path4965"
         inkscape:connector-curvature="0" />
    </g>
    <g
       style="clip-rule:evenodd;display:inline;fill-rule:evenodd;stroke-linejoin:round;stroke-miterlimit:1.5"
       id="g26970"
       transform="matrix(5.2525465,0,0,5.2525401,-817.29328,64.114177)">
      <path
         inkscape:connector-curvature="0"
         id="path26972"
         style="fill:#ffffff"
         d="m 253.679,75 c 0,0 9.321,-15.857 9.321,-22.653 0,-5.145 -4.177,-9.322 -9.321,-9.322 -5.145,0 -9.322,4.177 -9.322,9.322 0,6.796 9.322,22.653 9.322,22.653 z m 0,-28 c 2.207,0 4,1.792 4,4 0,2.208 -1.793,4 -4,4 -2.208,0 -4,-1.792 -4,-4 0,-2.208 1.792,-4 4,-4 z" />
    </g>
  </g>
  <g
     inkscape:groupmode="layer"
     id="layer3"
     inkscape:label="white"
     style="display:inline">
    <g
       id="g6127"
       transform="matrix(1.0881724,0,0,1.0881724,-35.269394,-21.312731)">
      <rect
         y="250.83"
         x="202.435"
         height="228.01001"
         width="395.14001"
         id="rect6102"
         style="fill:none;fill-opacity:1;fill-rule:evenodd;stroke:#ffffff;stroke-width:18;stroke-linecap:round;stroke-linejoin:miter;stroke-miterlimit:4;stroke-dasharray:none;stroke-dashoffset:0;stroke-opacity:1" />
      <path
         inkscape:connector-curvature="0"
         id="path6115"
         d="m 333.672,550.163 132.67,0"
         style="fill:none;fill-rule:evenodd;stroke:#ffffff;stroke-width:18;stroke-linecap:butt;stroke-linejoin:miter;stroke-miterlimit:4;stroke-dasharray:none;stroke-opacity:1" />
      <path
         inkscape:connector-curvature="0"
         id="path6117"
         d="m 400.007,550.163 0,-71.32299"
         style="fill:none;fill-rule:evenodd;stroke:#ffffff;stroke-width:45;stroke-linecap:butt;stroke-linejoin:miter;stroke-miterlimit:4;stroke-dasharray:none;stroke-opacity:1" />
    </g>
  </g>
</svg>
